#!OML:ASF F:\VICON\USERDATA\INSTALL\rory3\rory3.ASF
:FULLY-SPECIFIED
:DEGREES
136
root 0.9269384013902362 17.644672275474573 46.6242540126987 0.9326336152352144 0.8328172706952472 1.3306278756419108
lfemur -23.685080813911878 -4.521716911712306 -24.752279235549715
ltibia 25.366871623381783
lfoot -11.448209426133442 -2.93989273017476
ltoes 2.364200608409039
rfemur -25.452855680025813 -4.557739095704715 18.82297165574781
rtibia 129.19990050791952
rfoot 22.38897681941654 -6.845036110860396
rtoes 20.014388392068938
lowerback nan -1.2541104217215633 -2.5325291621398196
upperback 0.48314549151025965 0.5398381380726273 -0.5822744354562639
thorax -7.901290241500281 -0.5735995905703314 2.400473555131501
lowerneck -19.04633670394846 -5.437966046838689 -2.168631908982032
upperneck 4.565573651716289 -7.312356201711751 8.525483717899565
head 6.3030283352599135 -3.262046743885489 1.4842036078438843
lclavicle -1.3368300261671868e-14 4.2364975247921294e-15
lhumerus -46.36878501012077 -7.1434770692694185 88.80866248573349
lradius 123.32837028436896
lwrist 32.98271501392389
lhand -26.33621978247207 -3.469157868331349
lfingers nan
lthumb 0.4028945076082253 26.75974326891191
rclavicle -1.2684151655261125e-14 6.458515227332101e-15
rhumerus -55.31008701498928 9.527258130389502 -101.31860067248414
rradius 92.05176439773349
rwrist -17.517956735138526
rhand -20.119684574016265 nan
rfingers nan
rthumb 6.197720040247653 15.180210033164698
137
root 0.9133131340991072 17.600230371130763 45.94997217439254 1.589056967404928 1.8180147257445942 1.8437901147409064
lfemur -22.8782237818833 -6.3776872125347595 -25.848497879312518
ltibia 26.504327896416502
lfoot -12.12989301919474 -1.4167397412802059
ltoes 3.0250965088678683
rfemur -27.544483358545907 -5.881190734180331 17.04905676164031
rtibia 132.96217260569028
rfoot 22.080612272380286 -5.813332808578737
rtoes 19.46299117411309
lowerback nan -1.2772545340621013 -3.0651508626498223
upperback 0.22244909688107672 0.23428229584692595 -0.6768567319990693
thorax -8.830304675454183 -0.6900185980641457 2.5233191159459776
lowerneck -19.511255419341712 -5.4488531697515326 -2.193734556853162
upperneck 4.730703913488801 -7.321648126429008 8.445257210208158
head 6.45249158350609 -3.2641877844779033 1.4802077477959166
lclavicle -2.9045553358350503e-15 1.1514096207887445e-16
lhumerus -44.011765428623114 -7.671560961908389 88.2230115245928
lradius 123.46356214677049
lwrist 33.75802647726375
lhand -26.367486995137615 -0.7066732557419249
lfingers nan
lthumb 0.35238186613708433 29.470263407129664
rclavicle -2.1852075992525822e-15 2.7293448004873877e-15
rhumerus -55.723955520080445 8.781059094723556 -101.058260150025
rradius 90.1590530089135
rwrist -17.345143839254813
rhand -20.13748870947725 nan
rfingers nan
rthumb 6.1975149471736355 16.092284625399472
138
root 0.9428426247161406 17.575530243822204 44.56069824288784 1.077717688587168 1.2024684254015063 3.144966902981706
lfemur -19.700607539527844 -7.151748948015253 -28.56706230633364
ltibia 27.093556264820283
lfoot -13.83405269653322 0.2866115624419141
ltoes 5.247928798538858
rfemur -27.296253081745753 -5.774942273796736 13.884726578497695
rtibia 135.0451716979257
rfoot 20.9445747510595 -4.031819184358917
rtoes 20.96818925428325
lowerback nan -0.9369031467751653 -4.11321462228579
upperback 0.4911256088354793 0.20128443965218112 -1.0611436698874037
thorax -7.724236330554463 -0.6477904477423849 2.632209858679953
lowerneck -19.008726308131553 -5.4064845524549945 -2.2201954349896096
upperneck 4.537072953877751 -7.2609101216239464 8.405617893742189
head 6.29299674575426 -3.24068368460438 1.500770162958474
lclavicle -1.1554966438552903e-14 -1.207929392679152e-15
lhumerus -42.00149712450336 -8.15965754918357 87.79406199409472
lradius 123.53759982326459
lwrist 34.41872267621286
lhand -26.933974593933407 3.471017454918229
lfingers nan
lthumb -0.1849214531896186 33.601896844059546
rclavicle -1.0500981704716693e-14 1.608682989960647e-15
rhumerus -56.59081683632399 8.042933574323829 -100.997269135407
rradius 88.99355763402912
rwrist -16.78971045482667
rhand -20.670950521088805 nan
rfingers nan
rthumb 5.700590348291847 14.363340811684193
139
root 0.8837238187911756 17.548502462169193 45.31139733397744 1.8627422699945102 0.5425061791451007 1.4323876508777227
lfemur -18.958155098356613 -7.072783333184514 -27.096225321379876
ltibia 27.949585156646407
lfoot -14.986397783173416 1.3603446292260966
ltoes 6.5180940349865395
rfemur -30.25014725742204 -5.609643110419995 16.22170066284376
rtibia 137.50092779756343
rfoot 21.09226251767005 -4.207724975379128
rtoes 21.49014713386053
lowerback nan -0.7829227148926655 -3.174962447795424
upperback 0.18533431389545896 0.42720605793059707 -0.6783665732610991
thorax -8.226747171064886 -0.5536503862648613 2.5786754148589752
lowerneck -19.344518436481323 -5.2980114075668645 -2.180841354357311
upperneck 4.544384530698663 -7.065858682689127 8.159759082277878
head 6.3200767456625915 -3.167707092590638 1.453070965816261
lclavicle 2.6613144025117967e-14 4.568050747371629e-15
lhumerus -39.843652011906755 -8.478794848243373 87.32360004212823
lradius 123.38940858628861
lwrist 34.60769254023252
lhand -27.66533991893592 2.7121471380670212
lfingers nan
lthumb -0.8620464685401024 32.83206722846076
rclavicle 2.732157659216783e-14 7.669677340019288e-15
rhumerus -57.23649725307544 7.583090520781265 -100.56000880237563
rradius 88.16296481411413
rwrist -17.2098925977809
rhand -20.681712904356274 nan
rfingers nan
rthumb 5.729217339895925 13.575267032257388
